<?xml version="1.0" standalone="no"?>
<!DOCTYPE svg PUBLIC "-//W3C//DTD SVG 20010904//EN"
 "http://www.w3.org/TR/2001/REC-SVG-20010904/DTD/svg10.dtd">
<svg version="1.0" xmlns="http://www.w3.org/2000/svg"
 width="500.000000pt" height="500.000000pt" viewBox="0 0 500.000000 500.000000"
 preserveAspectRatio="xMidYMid meet">

<g transform="translate(0.000000,500.000000) scale(0.100000,-0.100000)"
fill="#000000" stroke="none">
<path d="M2510 3030 l0 -220 -65 0 -65 0 0 120 0 120 -115 0 -115 0 0 -120 0
-120 -45 0 -45 0 0 -66 0 -67 -44 41 c-179 165 -485 139 -621 -52 l-31 -44
-24 44 c-29 55 -88 110 -149 137 -34 16 -66 21 -126 21 -84 0 -115 -10 -182
-61 l-33 -24 0 35 0 36 -110 0 -110 0 -1 -222 c-1 -127 -4 -207 -9 -185 -13
68 -66 119 -158 153 -122 44 -134 52 -130 81 3 28 4 28 73 27 45 0 81 -6 102
-17 l33 -17 35 70 c20 39 33 75 30 80 -14 22 -122 44 -215 44 -77 0 -105 -5
-148 -23 -92 -41 -142 -124 -127 -213 12 -69 89 -137 198 -174 62 -21 84 -46
69 -79 -10 -21 -18 -25 -57 -25 -45 0 -111 26 -148 58 -9 8 -19 13 -21 11 -1
-2 -23 -37 -46 -78 l-44 -73 25 -19 c55 -43 129 -63 234 -63 182 -1 271 51
296 174 4 19 7 -83 8 -227 l1 -263 110 0 110 0 0 195 0 195 46 -30 c151 -95
362 -41 444 114 l24 44 26 -42 c122 -192 458 -222 630 -55 65 63 95 137 94
234 0 52 -6 93 -17 118 l-16 37 33 0 33 0 5 -163 c5 -148 8 -169 30 -219 44
-95 130 -132 259 -110 38 7 119 12 179 12 l110 0 0 545 0 545 -110 0 -110 0 0
-220z m-1418 -421 c57 -41 75 -132 40 -199 -53 -100 -215 -100 -267 0 -30 59
-15 150 33 193 46 42 140 44 194 6z m708 8 c108 -57 107 -209 0 -264 -53 -28
-93 -29 -140 -5 -97 48 -110 198 -23 260 53 37 104 40 163 9z m709 -149 c-1
-137 -3 -166 -12 -140 -7 24 -14 31 -26 26 -77 -32 -91 -8 -91 158 l0 128 65
0 65 0 -1 -172z"/>
<path d="M3810 2705 l0 -545 110 0 110 0 0 191 c0 214 7 243 65 279 39 24 102
26 133 4 47 -33 52 -59 52 -274 l0 -200 116 0 116 0 -4 240 -3 240 37 0 37 0
3 -172 c3 -158 5 -177 26 -221 42 -84 144 -122 264 -98 94 20 95 23 62 123
-27 84 -28 86 -52 77 -33 -13 -61 -2 -73 28 -5 13 -9 78 -9 144 l0 119 70 0
70 0 0 85 0 85 -70 0 -70 0 0 120 0 120 -110 0 -110 0 0 -120 0 -120 -50 0
-50 0 0 -51 0 -51 -29 31 c-35 38 -119 77 -183 86 -65 10 -140 -10 -194 -51
l-44 -34 0 255 0 255 -110 0 -110 0 0 -545z"/>
<path d="M2966 3195 c-4 -13 -2 -14 14 -5 23 13 26 20 6 20 -8 0 -16 -7 -20
-15z"/>
<path d="M2832 2988 c-18 -18 -15 -25 19 -37 43 -15 55 -4 28 25 -26 27 -30
29 -47 12z"/>
<path d="M3238 2817 c-118 -34 -209 -142 -228 -272 -5 -35 -8 -4 -9 108 l-1
157 -110 0 -110 0 0 -325 0 -325 110 0 110 0 1 158 c1 111 4 142 9 106 16
-110 83 -204 178 -251 51 -25 68 -28 153 -28 84 0 102 4 147 27 l52 27 0 -42
c0 -88 -66 -147 -163 -147 -66 0 -117 18 -150 54 l-23 25 -93 -44 -92 -45 18
-31 c25 -44 88 -98 139 -120 69 -31 192 -44 281 -31 134 21 218 72 269 164
l29 53 3 388 3 387 -111 0 -110 0 0 -32 c0 -29 -1 -30 -18 -15 -57 52 -197 78
-284 54z m216 -191 c18 -7 42 -26 54 -41 96 -122 -13 -289 -160 -246 -51 16
-83 48 -99 99 -37 126 85 238 205 188z"/>
<path d="M4630 1975 c0 -8 7 -15 15 -15 8 0 15 7 15 15 0 8 -7 15 -15 15 -8 0
-15 -7 -15 -15z"/>
<path d="M4680 1970 c-11 -11 -27 -20 -35 -20 -11 0 -15 -12 -15 -50 0 -37 4
-50 14 -50 10 0 16 13 19 38 l4 37 1 -37 c3 -51 32 -54 32 -3 0 44 15 45 30 1
7 -23 8 -41 0 -60 -8 -23 -8 -27 6 -24 9 2 29 34 45 71 34 80 33 77 15 77 -8
0 -20 -15 -26 -32 l-13 -33 -10 33 c-6 20 -16 32 -28 32 -12 0 -16 6 -12 20 3
11 3 20 -1 20 -3 0 -15 -9 -26 -20z"/>
<path d="M4200 1910 l0 -60 40 0 c42 0 66 24 50 50 -5 8 -6 19 -3 24 4 6 14
-8 23 -30 13 -29 14 -45 7 -62 -12 -27 -2 -41 17 -21 14 15 56 111 56 128 0
23 -22 9 -35 -21 l-13 -33 -7 27 c-8 32 -53 58 -102 58 l-33 0 0 -60z m60 25
c0 -8 -7 -15 -15 -15 -8 0 -15 7 -15 15 0 8 7 15 15 15 8 0 15 -7 15 -15z m3
-50 c1 -5 -6 -11 -15 -13 -11 -2 -18 3 -18 13 0 17 30 18 33 0z"/>
<path d="M4420 1922 c0 -53 12 -72 46 -72 35 0 54 26 54 76 0 32 -4 44 -15 44
-11 0 -15 -11 -15 -40 0 -28 -5 -43 -16 -47 -21 -8 -34 13 -34 55 0 17 -4 32
-10 32 -5 0 -10 -22 -10 -48z"/>
<path d="M4530 1898 c0 -36 4 -48 15 -48 10 0 15 11 15 35 0 24 5 35 15 35 10
0 15 -11 15 -35 0 -24 5 -35 15 -35 11 0 15 11 15 39 0 45 -13 58 -57 58 -33
0 -33 -1 -33 -49z"/>
</g>
</svg>
